<?xml version="1.0" encoding="UTF-8"?>
<svg version="1.1" xmlns="http://www.w3.org/2000/svg" xmlns:xlink="http://www.w3.org/1999/xlink" x="0px" y="0px" viewBox="0 0 1000 1000" enable-background="new 0 0 1000 1000" xml:space="preserve" width="16pt" height="16pt">
<metadata> Svg Vector Icons : http://www.onlinewebfonts.com/icon </metadata>
<g transform="translate(0.000000,511.000000) scale(0.100000,-0.100000)">
    <path style=" stroke:none;fill-rule:nonzero;fill:rgb(0%,43.921569%,65.882353%);fill-opacity:1;" d="M6126.4,5032.8c-118.7-21.4-200.4-64.2-250.9-134.2c-99.2-142-155.6-447.4-155.6-855.9c0-206.2-1.9-215.9-70-344.3c-182.9-344.3-459.1-678.9-739.2-896.7c-56.4-42.8-214-136.2-354-208.1c-307.3-159.5-536.9-342.4-844.2-680.8c-180.9-196.5-558.3-653.6-706.1-852l-38.9-52.5l-136.2,31.1c-182.8,44.7-1340.2,48.6-1565.9,7.8C812.2,965.4,432.9,767,242.3,514.2c-151.7-204.2-145.9-93.4-140-2126.1l5.8-1807.1l66.1-122.5c142-260.7,482.4-486.3,906.5-601.1c192.6-52.5,198.4-52.5,943.4-58.4c461-3.9,785.8-13.6,846.1-27.2c167.3-38.9,326.8-124.5,381.3-206.2c93.4-145.9,412.4-258.7,912.3-324.8c449.3-58.4,920.1-75.9,1847.9-64.2c1221.6,13.6,1618.4,37,1894.6,112.8c579.7,157.6,999.8,398.8,1174.9,675c126.4,196.5,149.8,441.6,64.2,634.1l-35,83.6l124.5,54.5c161.4,70,319,214,389,354c107,221.7,77.8,568-77.8,908.4l-64.2,136.2l122.5,120.6c346.2,340.4,336.5,783.9-25.3,1252.7c-58.4,77.8-105,142-101.2,143.9c3.9,3.9,46.7,33.1,95.3,66.1c215.9,143.9,344.3,490.2,324.9,865.6c-7.8,144-21.4,202.3-64.2,295.7c-103.1,217.9-319,387.1-618.6,484.3c-266.5,87.5-480.5,105-1579.5,128.4c-1149.6,25.3-1188.5,31.1-1291.6,145.9c-62.2,72-68.1,97.3-60.3,243.1c7.8,155.6,114.8,305.4,429.9,601.1c289.8,272.3,443.5,519.4,554.4,890.9c40.9,136.2,52.5,227.6,60.3,437.7c9.7,250.9,7.8,278.2-42.8,437.7c-116.7,381.2-289.8,630.2-511.6,739.2c-99.2,48.6-132.3,54.5-334.6,58.4C6317,5048.3,6175,5042.5,6126.4,5032.8z"/>
</g>
</svg>